<?xml version="1.0" encoding="UTF-8"?>
<svg id="_レイヤー_1" data-name="レイヤー 1" xmlns="http://www.w3.org/2000/svg" width="226" height="60" viewBox="0 0 226 60">
  <defs>
    <style>
      .cls-1 {
        fill: #d8ea80;
      }

      .cls-1, .cls-2, .cls-3, .cls-4, .cls-5, .cls-6, .cls-7, .cls-8, .cls-9, .cls-10, .cls-11, .cls-12, .cls-13, .cls-14, .cls-15, .cls-16 {
        stroke-width: 0px;
      }

      .cls-2 {
        fill: #77c9cd;
      }

      .cls-17 {
        fill: none;
        stroke: #fff;
        stroke-linecap: round;
        stroke-linejoin: round;
        stroke-width: .52px;
      }

      .cls-3 {
        fill: #b7dff4;
      }

      .cls-4 {
        fill: #7dc8f0;
      }

      .cls-5 {
        fill: #e1f4b3;
      }

      .cls-7 {
        fill: #ffe563;
      }

      .cls-8 {
        fill: #ffa1a2;
      }

      .cls-9 {
        fill: #84d7d6;
      }

      .cls-10 {
        fill: #ff7984;
      }

      .cls-11 {
        fill: #cbb0e6;
      }

      .cls-12 {
        fill: #e1c4e8;
      }

      .cls-13 {
        fill: #ffe8a4;
      }

      .cls-14 {
        fill: #ffb600;
      }

      .cls-15 {
        fill: #44c9bf;
      }

      .cls-16 {
        fill: #f48d96;
      }
    </style>
  </defs>
  <polygon class="cls-5" points="25.18 10.96 30.42 11.13 30.42 4.72 25.18 10.96"/>
  <polygon class="cls-5" points="30.42 4.72 30.42 4.72 30.42 11.13 35.66 10.96 30.42 4.72"/>
  <polygon class="cls-9" points="19.05 15.6 24.46 23.06 21.75 28.44 11.28 25.04 19.05 15.6"/>
  <polygon class="cls-9" points="19.05 15.6 24.46 23.06 30.42 22.15 30.42 11.13 19.05 15.6"/>
  <polygon class="cls-5" points="41.79 15.6 36.38 23.06 30.42 22.15 30.42 11.13 41.79 15.6"/>
  <polygon class="cls-5" points="41.79 15.6 36.38 23.06 39.09 28.44 49.56 25.04 41.79 15.6"/>
  <polygon class="cls-12" points="48.82 37.24 40.06 34.39 39.09 28.44 49.56 25.04 48.82 37.24"/>
  <polygon class="cls-12" points="48.82 37.24 40.06 34.39 35.78 38.63 42.25 47.54 48.82 37.24"/>
  <polygon class="cls-3" points="30.42 50.61 30.42 41.39 35.78 38.63 42.25 47.54 30.42 50.61"/>
  <polygon class="cls-3" points="30.42 50.61 30.42 41.39 25.06 38.63 18.59 47.54 30.42 50.61"/>
  <polygon class="cls-13" points="12.02 37.24 20.78 34.39 25.06 38.63 18.59 47.54 12.02 37.24"/>
  <polygon class="cls-13" points="12.02 37.24 20.78 34.39 21.75 28.44 11.28 25.04 12.02 37.24"/>
  <polygon class="cls-12" points="55.66 23.06 51.34 29.96 49.56 25.04 48.11 20.01 55.66 23.06"/>
  <polygon class="cls-3" points="46.02 52.73 46.59 44.6 42.25 47.54 38.12 50.76 46.02 52.73"/>
  <polygon class="cls-13" points="14.82 52.73 14.25 44.6 18.59 47.54 22.72 50.76 14.82 52.73"/>
  <polygon class="cls-9" points="5.18 23.06 9.5 29.96 11.28 25.04 12.73 20 5.18 23.06"/>
  <polyline class="cls-11" points="46.91 15.85 55.66 23.06 48.11 20"/>
  <polyline class="cls-17" points="46.91 15.85 55.66 23.06 48.11 20"/>
  <polyline class="cls-17" points="52.81 34.03 55.66 23.06 49.56 25.04"/>
  <polyline class="cls-11" points="52.81 34.03 55.66 23.06 51.34 29.96"/>
  <polyline class="cls-17" points="52.81 34.03 55.66 23.06 51.34 29.96"/>
  <polyline class="cls-4" points="50.17 42.17 46.02 52.73 46.59 44.6"/>
  <polyline class="cls-17" points="50.17 42.17 46.02 52.73 46.59 44.6"/>
  <polyline class="cls-17" points="34.7 53.41 46.02 52.73 42.25 47.54"/>
  <polyline class="cls-4" points="34.7 53.41 46.02 52.73 38.12 50.76"/>
  <polyline class="cls-17" points="34.7 53.41 46.02 52.73 38.12 50.76"/>
  <polyline class="cls-7" points="26.14 53.41 14.82 52.73 22.72 50.76"/>
  <polyline class="cls-17" points="26.14 53.41 14.82 52.73 22.72 50.76"/>
  <polyline class="cls-17" points="10.67 42.17 14.82 52.73 18.59 47.54"/>
  <polyline class="cls-7" points="10.67 42.17 14.82 52.73 14.25 44.6"/>
  <polyline class="cls-17" points="10.67 42.17 14.82 52.73 14.25 44.6"/>
  <polyline class="cls-2" points="8.03 34.03 5.18 23.06 9.5 29.96"/>
  <polyline class="cls-17" points="8.03 34.03 5.18 23.06 9.5 29.96"/>
  <polyline class="cls-17" points="13.93 15.85 5.18 23.06 11.28 25.04"/>
  <polyline class="cls-2" points="13.93 15.85 5.18 23.06 12.73 20.01"/>
  <polyline class="cls-17" points="13.93 15.85 5.18 23.06 12.73 20.01"/>
  <polyline class="cls-1" points="20.86 10.82 30.42 4.72 25.18 10.96"/>
  <polyline class="cls-17" points="20.86 10.82 30.42 4.72 25.18 10.96"/>
  <polyline class="cls-17" points="39.98 10.82 30.42 4.72 30.42 11.13"/>
  <polyline class="cls-1" points="39.98 10.82 30.42 4.72 35.66 10.96"/>
  <polyline class="cls-17" points="39.98 10.82 30.42 4.72 35.66 10.96"/>
  <polygon class="cls-8" points="19.05 15.6 30.42 31.26 30.42 20.08 19.05 15.6"/>
  <polygon class="cls-17" points="19.05 15.6 30.42 31.26 30.42 20.08 19.05 15.6"/>
  <polygon class="cls-16" points="41.79 15.6 30.42 31.26 30.42 20.08 41.79 15.6"/>
  <polygon class="cls-17" points="41.79 15.6 30.42 31.26 30.42 20.08 41.79 15.6"/>
  <polygon class="cls-8" points="41.79 15.6 30.42 31.26 41.05 27.8 41.79 15.6"/>
  <polygon class="cls-17" points="41.79 15.6 30.42 31.26 41.05 27.8 41.79 15.6"/>
  <polygon class="cls-16" points="48.82 37.24 30.42 31.26 41.05 27.8 48.82 37.24"/>
  <polygon class="cls-17" points="48.82 37.24 30.42 31.26 41.05 27.8 48.82 37.24"/>
  <polygon class="cls-8" points="48.82 37.24 30.42 31.26 36.99 40.3 48.82 37.24"/>
  <polygon class="cls-17" points="48.82 37.24 30.42 31.26 36.99 40.3 48.82 37.24"/>
  <polygon class="cls-16" points="30.42 50.61 30.42 31.26 36.99 40.3 30.42 50.61"/>
  <polygon class="cls-17" points="30.42 50.61 30.42 31.26 36.99 40.3 30.42 50.61"/>
  <polygon class="cls-8" points="30.42 50.61 30.42 31.26 23.85 40.3 30.42 50.61"/>
  <polygon class="cls-17" points="30.42 50.61 30.42 31.26 23.85 40.3 30.42 50.61"/>
  <polygon class="cls-16" points="12.02 37.24 30.42 31.26 23.85 40.3 12.02 37.24"/>
  <polygon class="cls-17" points="12.02 37.24 30.42 31.26 23.85 40.3 12.02 37.24"/>
  <polygon class="cls-8" points="12.02 37.24 30.42 31.26 19.79 27.8 12.02 37.24"/>
  <polygon class="cls-17" points="12.02 37.24 30.42 31.26 19.79 27.8 12.02 37.24"/>
  <polygon class="cls-16" points="19.05 15.6 30.42 31.26 19.79 27.8 19.05 15.6"/>
  <polygon class="cls-17" points="19.05 15.6 30.42 31.26 19.79 27.8 19.05 15.6"/>
  <polyline class="cls-17" points="41.79 15.6 36.11 13.37 30.42 11.13 30.42 15.6 30.42 20.08"/>
  <polyline class="cls-17" points="12.02 37.24 15.3 42.39 18.59 47.54 21.22 43.92 23.85 40.3"/>
  <polyline class="cls-17" points="19.05 15.6 15.16 20.32 11.28 25.04 15.53 26.42 19.79 27.8"/>
  <polygon class="cls-7" points="18.59 47.54 6.18 39.13 12.02 37.24 18.59 47.54"/>
  <polygon class="cls-17" points="18.59 47.54 6.18 39.13 12.02 37.24 18.59 47.54"/>
  <polygon class="cls-1" points="30.42 11.13 45.4 10.64 41.79 15.6 30.42 11.13"/>
  <polygon class="cls-17" points="30.42 11.13 45.4 10.64 41.79 15.6 30.42 11.13"/>
  <polygon class="cls-1" points="49.56 25.04 45.4 10.64 41.79 15.6 49.56 25.04"/>
  <polygon class="cls-17" points="49.56 25.04 45.4 10.64 41.79 15.6 49.56 25.04"/>
  <polygon class="cls-2" points="11.28 25.04 15.44 10.64 19.05 15.6 11.28 25.04"/>
  <polygon class="cls-17" points="11.28 25.04 15.44 10.64 19.05 15.6 11.28 25.04"/>
  <polygon class="cls-4" points="42.25 47.54 30.42 56.74 30.42 50.61 42.25 47.54"/>
  <polygon class="cls-17" points="42.25 47.54 30.42 56.74 30.42 50.61 42.25 47.54"/>
  <polygon class="cls-11" points="49.56 25.04 54.66 39.13 48.82 37.24 49.56 25.04"/>
  <polygon class="cls-17" points="49.56 25.04 54.66 39.13 48.82 37.24 49.56 25.04"/>
  <polygon class="cls-11" points="42.25 47.54 54.66 39.13 48.82 37.24 42.25 47.54"/>
  <polygon class="cls-17" points="42.25 47.54 54.66 39.13 48.82 37.24 42.25 47.54"/>
  <polygon class="cls-7" points="11.28 25.04 6.18 39.13 12.02 37.24 11.28 25.04"/>
  <polygon class="cls-17" points="11.28 25.04 6.18 39.13 12.02 37.24 11.28 25.04"/>
  <polygon class="cls-4" points="18.59 47.54 30.42 56.74 30.42 50.61 18.59 47.54"/>
  <polygon class="cls-17" points="18.59 47.54 30.42 56.74 30.42 50.61 18.59 47.54"/>
  <polyline class="cls-17" points="30.42 50.61 36.34 49.07 42.25 47.54 39.62 43.92 36.99 40.3"/>
  <polyline class="cls-17" points="48.82 37.24 49.19 31.14 49.56 25.04 45.31 26.42 41.05 27.8"/>
  <polygon class="cls-2" points="30.42 11.13 15.44 10.64 19.05 15.6 30.42 11.13"/>
  <polygon class="cls-17" points="30.42 11.13 15.44 10.64 19.05 15.6 30.42 11.13"/>
  <g>
    <path class="cls-6" d="M70.96,20.52v.98h-1.88v5.94h-1.17v-5.94h-1.89v-.98h4.95Z"/>
    <path class="cls-6" d="M72.72,23.06c.52-.52.97-.72,1.56-.72.93,0,1.42.54,1.42,1.56v3.53h-1.08v-2.99c0-.46-.04-.72-.16-.9-.12-.19-.33-.29-.59-.29-.41,0-.8.25-1.15.74v3.45h-1.07v-6.92h1.07v2.54Z"/>
    <path class="cls-6" d="M77.5,25.18c.03.44.09.68.26.95.22.35.59.56,1,.56.32,0,.59-.12.8-.37.1-.12.16-.23.28-.51l.91.45c-.24.43-.41.66-.67.87-.34.28-.82.43-1.36.43s-1.02-.15-1.39-.44c-.56-.45-.87-1.2-.87-2.11,0-.79.22-1.47.64-1.97.39-.45.9-.68,1.54-.68.8,0,1.42.39,1.78,1.11.2.42.29.88.32,1.73h-3.23ZM79.66,24.37c-.1-.8-.44-1.19-1.05-1.19s-.99.42-1.09,1.19h2.14Z"/>
  </g>
  <path class="cls-6" d="M88.29,18.11v8.14h1.72v1.18h-4.99v-1.18h1.82v-6.6c-.5.34-1.07.61-1.71.82l-.24-1.27c.74-.21,1.46-.58,2.16-1.09h1.25Z"/>
  <path class="cls-6" d="M92.91,18.01c1.03,0,1.78.42,2.25,1.25.44.78.66,1.95.66,3.51,0,1.79-.29,3.07-.86,3.85-.48.65-1.17.98-2.08.98-1.04,0-1.79-.42-2.26-1.27-.43-.78-.64-1.96-.64-3.53,0-1.78.29-3.05.87-3.83.47-.64,1.16-.96,2.06-.96ZM92.91,19.21c-.52,0-.88.29-1.08.87-.19.54-.28,1.44-.28,2.7,0,1.43.12,2.42.36,2.95.2.45.52.68.98.68.53,0,.9-.3,1.1-.91.18-.55.27-1.45.27-2.71,0-1.43-.12-2.4-.36-2.91-.2-.44-.53-.66-.99-.66Z"/>
  <g>
    <path class="cls-6" d="M98.35,22.45h1.05v.87h-1.05v2.67c0,.5.13.67.55.67.17,0,.29-.03.5-.09v.89c-.3.06-.58.09-.83.09-.41,0-.68-.08-.9-.26-.29-.23-.37-.51-.37-1.23v-2.74h-.75v-.87h.75v-1.61h1.05v1.61Z"/>
    <path class="cls-6" d="M101.16,23.06c.52-.52.97-.72,1.56-.72.93,0,1.42.54,1.42,1.56v3.53h-1.08v-2.99c0-.46-.04-.72-.16-.9-.12-.19-.33-.29-.59-.29-.41,0-.8.25-1.15.74v3.45h-1.07v-6.92h1.07v2.54Z"/>
    <path class="cls-6" d="M109.45,27.44h-1.17v-6.92h1.17v6.92Z"/>
    <path class="cls-6" d="M111.72,23.07c.5-.52.92-.73,1.55-.73.94,0,1.44.53,1.44,1.56v3.53h-1.08v-2.99c0-.44-.04-.71-.13-.88-.12-.2-.33-.31-.6-.31-.44,0-.81.24-1.16.75v3.44h-1.07v-4.98h1.07v.61Z"/>
    <path class="cls-6" d="M117.15,22.45h1.05v.87h-1.05v2.67c0,.5.13.67.55.67.17,0,.29-.03.5-.09v.89c-.3.06-.58.09-.83.09-.41,0-.68-.08-.9-.26-.29-.23-.37-.51-.37-1.23v-2.74h-.75v-.87h.75v-1.61h1.05v1.61Z"/>
    <path class="cls-6" d="M119.7,25.18c.03.44.09.68.26.95.22.35.59.56,1,.56.32,0,.59-.12.8-.37.1-.12.16-.23.28-.51l.91.45c-.24.43-.41.66-.67.87-.34.28-.82.43-1.36.43s-1.02-.15-1.39-.44c-.56-.45-.87-1.2-.87-2.11,0-.79.22-1.47.64-1.97.39-.45.9-.68,1.54-.68.8,0,1.42.39,1.78,1.11.2.42.29.88.32,1.73h-3.23ZM121.85,24.37c-.1-.8-.44-1.19-1.05-1.19s-.99.42-1.09,1.19h2.14Z"/>
    <path class="cls-6" d="M124.8,23.31c.27-.44.46-.62.77-.78.27-.13.47-.18.94-.19v1.01c-.4,0-.58.04-.84.16-.38.19-.61.5-.87,1.18v2.74h-1.07v-4.98h1.07v.85Z"/>
    <path class="cls-6" d="M128.25,23.07c.5-.52.92-.73,1.55-.73.94,0,1.44.53,1.44,1.56v3.53h-1.08v-2.99c0-.44-.04-.71-.13-.88-.12-.2-.33-.31-.6-.31-.44,0-.81.24-1.16.75v3.44h-1.07v-4.98h1.07v.61Z"/>
    <path class="cls-6" d="M132.16,23.55c.37-.84.97-1.21,1.96-1.21,1.19,0,1.79.52,1.79,1.58v2.48c0,.28.04.67.12,1.04h-1c-.03-.13-.05-.35-.07-.57-.23.24-.35.33-.52.43-.28.17-.61.26-.94.26-.91,0-1.49-.56-1.49-1.45,0-.73.36-1.21,1.17-1.55.41-.18.93-.33,1.71-.51,0-.35-.04-.48-.12-.6-.12-.17-.36-.26-.67-.26-.34,0-.6.12-.79.36-.08.11-.14.21-.25.5l-.9-.49ZM134.89,24.83c-1.41.35-1.87.65-1.87,1.23,0,.26.12.47.31.57.09.04.2.06.37.06.38,0,.79-.27,1.19-.76v-1.1Z"/>
    <path class="cls-6" d="M138.39,22.45h1.05v.87h-1.05v2.67c0,.5.13.67.55.67.17,0,.29-.03.5-.09v.89c-.3.06-.58.09-.83.09-.41,0-.68-.08-.9-.26-.29-.23-.37-.51-.37-1.23v-2.74h-.75v-.87h.75v-1.61h1.05v1.61Z"/>
    <path class="cls-6" d="M141.4,21.19c0,.37-.3.67-.68.67s-.67-.3-.67-.67.3-.67.67-.67.68.29.68.67ZM141.27,27.44h-1.08v-4.98h1.08v4.98Z"/>
    <path class="cls-6" d="M144.3,27.55c-1.35,0-2.18-.99-2.18-2.62,0-.78.21-1.44.61-1.91.38-.46.88-.67,1.54-.67.76,0,1.33.27,1.72.83.31.44.48,1.06.48,1.76,0,1.61-.83,2.62-2.18,2.62ZM144.28,23.23c-.69,0-1.07.6-1.07,1.72s.38,1.72,1.08,1.72,1.08-.64,1.08-1.74-.38-1.71-1.1-1.71Z"/>
    <path class="cls-6" d="M148.33,23.07c.5-.52.92-.73,1.55-.73.94,0,1.44.53,1.44,1.56v3.53h-1.08v-2.99c0-.44-.04-.71-.13-.88-.12-.2-.33-.31-.6-.31-.44,0-.81.24-1.16.75v3.44h-1.07v-4.98h1.07v.61Z"/>
    <path class="cls-6" d="M152.24,23.55c.37-.84.97-1.21,1.96-1.21,1.19,0,1.79.52,1.79,1.58v2.48c0,.28.04.67.12,1.04h-1c-.03-.13-.05-.35-.07-.57-.23.24-.35.33-.52.43-.28.17-.61.26-.94.26-.91,0-1.49-.56-1.49-1.45,0-.73.36-1.21,1.17-1.55.41-.18.93-.33,1.71-.51,0-.35-.04-.48-.12-.6-.12-.17-.36-.26-.67-.26-.34,0-.6.12-.79.36-.08.11-.14.21-.25.5l-.9-.49ZM154.98,24.83c-1.41.35-1.87.65-1.87,1.23,0,.26.12.47.31.57.09.04.2.06.37.06.38,0,.79-.27,1.19-.76v-1.1Z"/>
    <path class="cls-6" d="M158.16,27.44h-1.08v-6.92h1.08v6.92Z"/>
    <path class="cls-6" d="M167.46,25.31c-.2.8-.38,1.16-.74,1.54-.44.46-1.05.69-1.86.69-1.78,0-2.81-1.3-2.81-3.54s1.03-3.61,2.78-3.61c.75,0,1.33.22,1.78.67.36.36.56.76.74,1.5l-1.14.3c-.09-.41-.14-.59-.26-.8-.23-.44-.59-.66-1.11-.66-1.07,0-1.6.87-1.6,2.6,0,.77.12,1.38.38,1.83.27.46.67.69,1.22.69.51,0,.91-.19,1.13-.53.16-.25.25-.51.33-.95l1.16.26Z"/>
    <path class="cls-6" d="M170.11,27.55c-1.35,0-2.18-.99-2.18-2.62,0-.78.21-1.44.61-1.91.38-.46.88-.67,1.54-.67.76,0,1.33.27,1.72.83.31.44.48,1.06.48,1.76,0,1.61-.83,2.62-2.18,2.62ZM170.09,23.23c-.69,0-1.07.6-1.07,1.72s.38,1.72,1.08,1.72,1.08-.64,1.08-1.74-.38-1.71-1.1-1.71Z"/>
    <path class="cls-6" d="M174.14,23.07c.5-.52.92-.73,1.55-.73.94,0,1.44.53,1.44,1.56v3.53h-1.08v-2.99c0-.44-.04-.71-.13-.88-.12-.2-.33-.31-.6-.31-.44,0-.81.24-1.16.75v3.44h-1.07v-4.98h1.07v.61Z"/>
    <path class="cls-6" d="M180.61,21.33c-.22-.04-.28-.04-.49-.04-.38,0-.54.2-.54.65v.52h1.03v.87h-1.03v4.11h-1.05v-4.11h-.75v-.87h.75v-.64c0-.93.47-1.41,1.38-1.41.2,0,.35,0,.7.06v.86Z"/>
    <path class="cls-6" d="M182.11,25.18c.03.44.09.68.26.95.22.35.59.56,1,.56.32,0,.59-.12.8-.37.1-.12.16-.23.28-.51l.91.45c-.24.43-.41.66-.67.87-.34.28-.82.43-1.36.43s-1.02-.15-1.39-.44c-.56-.45-.87-1.2-.87-2.11,0-.79.22-1.47.64-1.97.39-.45.9-.68,1.54-.68.8,0,1.42.39,1.78,1.11.2.42.29.88.32,1.73h-3.23ZM184.27,24.37c-.1-.8-.44-1.19-1.05-1.19s-.99.42-1.09,1.19h2.14Z"/>
    <path class="cls-6" d="M187.22,23.31c.27-.44.46-.62.77-.78.27-.13.47-.18.94-.19v1.01c-.4,0-.58.04-.84.16-.38.19-.61.5-.87,1.18v2.74h-1.07v-4.98h1.07v.85Z"/>
    <path class="cls-6" d="M190.41,25.18c.03.44.09.68.26.95.22.35.59.56,1,.56.32,0,.59-.12.8-.37.1-.12.16-.23.28-.51l.91.45c-.24.43-.41.66-.67.87-.34.28-.82.43-1.36.43s-1.02-.15-1.39-.44c-.56-.45-.87-1.2-.87-2.11,0-.79.22-1.47.64-1.97.39-.45.9-.68,1.54-.68.8,0,1.42.39,1.78,1.11.2.42.29.88.32,1.73h-3.23ZM192.57,24.37c-.1-.8-.44-1.19-1.05-1.19s-.99.42-1.09,1.19h2.14Z"/>
    <path class="cls-6" d="M195.45,23.07c.5-.52.92-.73,1.55-.73.94,0,1.44.53,1.44,1.56v3.53h-1.08v-2.99c0-.44-.04-.71-.13-.88-.12-.2-.33-.31-.6-.31-.44,0-.81.24-1.16.75v3.44h-1.07v-4.98h1.07v.61Z"/>
    <path class="cls-6" d="M203.32,26.03c-.18.52-.31.76-.56,1-.35.35-.81.51-1.4.51-.82,0-1.37-.28-1.76-.91-.27-.44-.41-1-.41-1.69,0-.89.25-1.61.73-2.09.36-.36.82-.52,1.41-.52s1.08.18,1.42.52c.2.22.34.46.53.98l-1.03.35c-.2-.72-.44-.97-.94-.97-.67,0-1.02.59-1.02,1.7,0,1.18.35,1.76,1.05,1.76.33,0,.58-.13.74-.38.09-.14.15-.28.24-.61l1,.35Z"/>
    <path class="cls-6" d="M204.77,25.18c.03.44.09.68.26.95.22.35.59.56,1,.56.32,0,.59-.12.8-.37.1-.12.16-.23.28-.51l.91.45c-.24.43-.41.66-.67.87-.34.28-.82.43-1.36.43s-1.02-.15-1.39-.44c-.56-.45-.87-1.2-.87-2.11,0-.79.22-1.47.64-1.97.39-.45.9-.68,1.54-.68.8,0,1.42.39,1.78,1.11.2.42.29.88.32,1.73h-3.23ZM206.93,24.37c-.1-.8-.44-1.19-1.05-1.19s-.99.42-1.09,1.19h2.14Z"/>
    <path class="cls-6" d="M213.65,27.55c-1.35,0-2.18-.99-2.18-2.62,0-.78.21-1.44.61-1.91.38-.46.88-.67,1.54-.67.76,0,1.33.27,1.72.83.31.44.48,1.06.48,1.76,0,1.61-.83,2.62-2.18,2.62ZM213.64,23.23c-.69,0-1.07.6-1.07,1.72s.38,1.72,1.08,1.72,1.08-.64,1.08-1.74-.38-1.71-1.1-1.71Z"/>
    <path class="cls-6" d="M217.69,23.07c.5-.52.92-.73,1.55-.73.94,0,1.44.53,1.44,1.56v3.53h-1.08v-2.99c0-.44-.04-.71-.13-.88-.12-.2-.33-.31-.6-.31-.44,0-.81.24-1.16.75v3.44h-1.07v-4.98h1.07v.61Z"/>
  </g>
  <path class="cls-10" d="M66.79,44.19v-10.78h3.32c.95,0,1.79.21,2.54.64.75.43,1.33,1.03,1.75,1.82s.63,1.68.63,2.68v.5c0,1-.21,1.89-.62,2.67-.41.78-.99,1.38-1.74,1.81-.75.43-1.6.65-2.54.65h-3.34ZM69.02,35.21v7.2h1.07c.87,0,1.53-.28,1.99-.85.46-.57.69-1.38.7-2.44v-.57c0-1.1-.23-1.93-.68-2.49s-1.12-.85-1.99-.85h-1.1Z"/>
  <g>
    <path class="cls-6" d="M76.36,35.76c0-.27.09-.49.27-.66.18-.17.42-.26.73-.26s.55.09.73.26c.18.17.27.39.27.66s-.09.5-.28.67c-.18.17-.43.26-.73.26s-.54-.09-.73-.26c-.18-.17-.28-.4-.28-.67ZM78.26,44.19h-1.79v-6.7h1.79v6.7Z"/>
    <path class="cls-6" d="M83.36,42.34c0-.22-.11-.39-.32-.52-.22-.13-.56-.24-1.04-.34-1.59-.33-2.39-1.01-2.39-2.03,0-.59.25-1.09.74-1.49.49-.4,1.14-.6,1.93-.6.85,0,1.53.2,2.04.6.51.4.76.92.76,1.56h-1.79c0-.26-.08-.47-.25-.63s-.42-.25-.77-.25c-.3,0-.53.07-.7.2-.17.14-.25.31-.25.52,0,.2.09.36.28.48.19.12.5.23.95.32.45.09.82.19,1.13.3.94.35,1.42.95,1.42,1.8,0,.61-.26,1.1-.79,1.48-.52.38-1.2.57-2.03.57-.56,0-1.06-.1-1.49-.3-.44-.2-.78-.47-1.02-.82-.25-.35-.37-.72-.37-1.13h1.7c.02.32.13.56.35.73.22.17.51.25.88.25.34,0,.6-.06.78-.19s.26-.3.26-.51Z"/>
    <path class="cls-6" d="M89.04,42.87c.33,0,.6-.09.8-.27.21-.18.31-.42.32-.72h1.68c0,.45-.13.87-.37,1.25-.24.38-.58.67-1,.88-.42.21-.89.31-1.4.31-.96,0-1.71-.3-2.27-.91s-.83-1.45-.83-2.52v-.12c0-1.03.27-1.85.82-2.47.55-.62,1.3-.92,2.26-.92.84,0,1.51.24,2.01.71s.76,1.11.77,1.9h-1.68c0-.35-.12-.63-.32-.85-.21-.22-.48-.33-.82-.33-.42,0-.73.15-.94.46-.21.3-.32.8-.32,1.48v.19c0,.69.1,1.19.32,1.49s.53.45.96.45Z"/>
    <path class="cls-6" d="M96.62,39.17c-.24-.03-.46-.05-.64-.05-.68,0-1.12.23-1.33.69v4.38h-1.79v-6.7h1.69l.05.8c.36-.62.86-.92,1.49-.92.2,0,.38.03.56.08l-.02,1.72Z"/>
    <path class="cls-6" d="M100.57,44.32c-.98,0-1.78-.3-2.4-.9-.62-.6-.93-1.4-.93-2.41v-.17c0-.67.13-1.27.39-1.8.26-.53.63-.94,1.1-1.23s1.02-.43,1.63-.43c.92,0,1.64.29,2.16.87.53.58.79,1.4.79,2.46v.73h-4.26c.06.44.23.79.52,1.05.29.26.66.4,1.1.4.69,0,1.23-.25,1.62-.75l.88.98c-.27.38-.63.68-1.09.89-.46.21-.97.32-1.52.32ZM100.36,38.81c-.35,0-.64.12-.86.36-.22.24-.36.58-.42,1.03h2.49v-.14c0-.4-.12-.71-.32-.92-.21-.22-.5-.33-.88-.33Z"/>
    <path class="cls-6" d="M106.48,35.85v1.65h1.15v1.31h-1.15v3.34c0,.25.05.43.14.53.1.11.28.16.54.16.2,0,.37-.01.53-.04v1.36c-.35.11-.71.16-1.08.16-1.25,0-1.89-.63-1.92-1.9v-3.61h-.98v-1.31h.98v-1.65h1.79Z"/>
    <path class="cls-6" d="M111.7,44.32c-.98,0-1.78-.3-2.4-.9-.62-.6-.93-1.4-.93-2.41v-.17c0-.67.13-1.27.39-1.8.26-.53.63-.94,1.1-1.23s1.02-.43,1.63-.43c.92,0,1.64.29,2.16.87.53.58.79,1.4.79,2.46v.73h-4.26c.06.44.23.79.52,1.05.29.26.66.4,1.1.4.69,0,1.23-.25,1.62-.75l.88.98c-.27.38-.63.68-1.09.89-.46.21-.97.32-1.52.32ZM111.5,38.81c-.35,0-.64.12-.86.36-.22.24-.36.58-.42,1.03h2.49v-.14c0-.4-.12-.71-.32-.92-.21-.22-.5-.33-.88-.33Z"/>
  </g>
  <path class="cls-14" d="M125.39,39.52h-4.26v2.89h5v1.78h-7.23v-10.78h7.21v1.8h-4.99v2.57h4.26v1.74Z"/>
  <g>
    <path class="cls-6" d="M129.65,44.19h-1.79v-9.51h1.79v9.51Z"/>
    <path class="cls-6" d="M134.21,44.32c-.98,0-1.78-.3-2.4-.9-.62-.6-.93-1.4-.93-2.41v-.17c0-.67.13-1.27.39-1.8.26-.53.63-.94,1.1-1.23s1.02-.43,1.63-.43c.92,0,1.64.29,2.16.87.53.58.79,1.4.79,2.46v.73h-4.26c.06.44.23.79.52,1.05.29.26.66.4,1.1.4.69,0,1.23-.25,1.62-.75l.88.98c-.27.38-.63.68-1.09.89-.46.21-.97.32-1.52.32ZM134,38.81c-.35,0-.64.12-.86.36-.22.24-.36.58-.42,1.03h2.49v-.14c0-.4-.12-.71-.32-.92-.21-.22-.5-.33-.88-.33Z"/>
    <path class="cls-6" d="M139.65,37.5l.06.75c.47-.58,1.12-.87,1.92-.87.86,0,1.45.34,1.78,1.02.47-.68,1.14-1.02,2.01-1.02.73,0,1.27.21,1.62.63s.53,1.06.53,1.91v4.28h-1.79v-4.27c0-.38-.07-.66-.22-.83-.15-.17-.41-.26-.79-.26-.54,0-.91.26-1.11.77v4.6s-1.78,0-1.78,0v-4.26c0-.39-.08-.67-.23-.84-.15-.17-.41-.26-.78-.26-.51,0-.88.21-1.1.63v4.74h-1.79v-6.7h1.68Z"/>
    <path class="cls-6" d="M152.03,44.32c-.98,0-1.78-.3-2.4-.9-.62-.6-.93-1.4-.93-2.41v-.17c0-.67.13-1.27.39-1.8.26-.53.63-.94,1.1-1.23s1.02-.43,1.63-.43c.92,0,1.64.29,2.16.87.53.58.79,1.4.79,2.46v.73h-4.26c.06.44.23.79.52,1.05.29.26.66.4,1.1.4.69,0,1.23-.25,1.62-.75l.88.98c-.27.38-.63.68-1.09.89-.46.21-.97.32-1.52.32ZM151.83,38.81c-.35,0-.64.12-.86.36-.22.24-.36.58-.42,1.03h2.49v-.14c0-.4-.12-.71-.32-.92-.21-.22-.5-.33-.88-.33Z"/>
    <path class="cls-6" d="M157.45,37.5l.06.77c.48-.6,1.12-.9,1.92-.9.71,0,1.24.21,1.58.62s.52,1.04.53,1.87v4.33h-1.79v-4.28c0-.38-.08-.66-.25-.83s-.44-.26-.82-.26c-.5,0-.88.21-1.13.64v4.72h-1.79v-6.7h1.68Z"/>
    <path class="cls-6" d="M165.04,35.85v1.65h1.15v1.31h-1.15v3.34c0,.25.05.43.14.53.1.11.28.16.54.16.2,0,.37-.01.53-.04v1.36c-.35.11-.71.16-1.08.16-1.25,0-1.89-.63-1.92-1.9v-3.61h-.98v-1.31h.98v-1.65h1.79Z"/>
  </g>
  <path class="cls-15" d="M173.52,33.41l2.77,7.82,2.75-7.82h2.92v10.78h-2.23v-2.95l.22-5.09-2.91,8.03h-1.52l-2.9-8.02.22,5.08v2.95h-2.22v-10.78h2.9Z"/>
  <g>
    <path class="cls-6" d="M186.7,44.32c-.98,0-1.78-.3-2.4-.9-.62-.6-.93-1.4-.93-2.41v-.17c0-.67.13-1.27.39-1.8.26-.53.63-.94,1.1-1.23s1.02-.43,1.63-.43c.92,0,1.64.29,2.16.87.53.58.79,1.4.79,2.46v.73h-4.26c.06.44.23.79.52,1.05.29.26.66.4,1.1.4.69,0,1.23-.25,1.62-.75l.88.98c-.27.38-.63.68-1.09.89-.46.21-.97.32-1.52.32ZM186.5,38.81c-.35,0-.64.12-.86.36-.22.24-.36.58-.42,1.03h2.49v-.14c0-.4-.12-.71-.32-.92-.21-.22-.5-.33-.88-.33Z"/>
    <path class="cls-6" d="M192.61,35.85v1.65h1.15v1.31h-1.15v3.34c0,.25.05.43.14.53.1.11.28.16.54.16.2,0,.37-.01.53-.04v1.36c-.35.11-.71.16-1.08.16-1.25,0-1.89-.63-1.92-1.9v-3.61h-.98v-1.31h.98v-1.65h1.79Z"/>
    <path class="cls-6" d="M196.5,38.23c.47-.57,1.07-.85,1.79-.85,1.45,0,2.19.84,2.21,2.53v4.29h-1.79v-4.24c0-.38-.08-.67-.25-.85s-.44-.28-.82-.28c-.52,0-.9.2-1.14.61v4.76h-1.79v-9.51h1.79v3.54Z"/>
    <path class="cls-6" d="M201.57,40.78c0-.66.13-1.26.38-1.78.26-.52.62-.92,1.1-1.21.48-.29,1.04-.43,1.67-.43.9,0,1.64.28,2.21.83.57.55.89,1.3.96,2.25v.46c.01,1.03-.27,1.85-.85,2.47-.57.62-1.34.93-2.31.93s-1.74-.31-2.31-.93-.86-1.46-.86-2.53v-.08ZM203.36,40.91c0,.64.12,1.12.36,1.46s.58.5,1.03.5.77-.17,1.02-.5.37-.86.37-1.6c0-.62-.12-1.11-.37-1.45s-.59-.51-1.03-.51-.78.17-1.02.51-.36.87-.36,1.58Z"/>
    <path class="cls-6" d="M208.74,40.79c0-1.04.23-1.88.7-2.49s1.11-.93,1.92-.93c.65,0,1.19.24,1.62.73v-3.42h1.79v9.51h-1.62l-.09-.71c-.45.56-1.02.84-1.72.84-.79,0-1.42-.31-1.9-.93s-.71-1.48-.71-2.59ZM210.52,40.93c0,.63.11,1.11.33,1.44s.54.5.95.5c.55,0,.94-.23,1.17-.7v-2.65c-.22-.47-.61-.7-1.16-.7-.86,0-1.29.7-1.29,2.1Z"/>
    <path class="cls-6" d="M219.78,42.34c0-.22-.11-.39-.32-.52-.22-.13-.56-.24-1.04-.34-1.59-.33-2.39-1.01-2.39-2.03,0-.59.25-1.09.74-1.49.49-.4,1.14-.6,1.93-.6.85,0,1.53.2,2.04.6.51.4.76.92.76,1.56h-1.79c0-.26-.08-.47-.25-.63s-.42-.25-.77-.25c-.3,0-.53.07-.7.2-.17.14-.25.31-.25.52,0,.2.09.36.28.48.19.12.5.23.95.32.45.09.82.19,1.13.3.94.35,1.42.95,1.42,1.8,0,.61-.26,1.1-.79,1.48-.52.38-1.2.57-2.03.57-.56,0-1.06-.1-1.49-.3-.44-.2-.78-.47-1.02-.82-.25-.35-.37-.72-.37-1.13h1.7c.02.32.13.56.35.73.22.17.51.25.88.25.34,0,.6-.06.78-.19s.26-.3.26-.51Z"/>
  </g>
</svg>